<svg xmlns="http://www.w3.org/2000/svg" width="1200" height="820" viewBox="0 0 1200 820">
  <defs>
    <linearGradient id="bg" x1="0%" y1="0%" x2="100%" y2="100%">
      <stop offset="0%" stop-color="#12081d"/>
      <stop offset="58%" stop-color="#191028"/>
      <stop offset="100%" stop-color="#09060f"/>
    </linearGradient>
    <radialGradient id="glowA" cx="78%" cy="18%" r="44%">
      <stop offset="0%" stop-color="#caa4ff" stop-opacity="0.5"/>
      <stop offset="100%" stop-color="#caa4ff" stop-opacity="0"/>
    </radialGradient>
    <radialGradient id="glowB" cx="24%" cy="82%" r="38%">
      <stop offset="0%" stop-color="#7446ff" stop-opacity="0.36"/>
      <stop offset="100%" stop-color="#7446ff" stop-opacity="0"/>
    </radialGradient>
    <filter id="blur">
      <feGaussianBlur stdDeviation="22"/>
    </filter>
  </defs>
  <rect width="1200" height="820" rx="34" fill="url(#bg)"/>
  <rect width="1200" height="820" rx="34" fill="url(#glowA)"/>
  <rect width="1200" height="820" rx="34" fill="url(#glowB)"/>
  <circle cx="958" cy="164" r="156" fill="#caa4ff" opacity="0.18" filter="url(#blur)"/>
  <circle cx="254" cy="662" r="138" fill="#7446ff" opacity="0.16" filter="url(#blur)"/>
  <g opacity="0.18">
    <path d="M-60 584 C220 420, 516 736, 1260 510" stroke="#ffffff" stroke-width="3" fill="none"/>
    <path d="M-60 652 C248 502, 546 786, 1260 596" stroke="#ffffff" stroke-width="2" fill="none"/>
  </g>
  <rect x="48" y="42" width="236" height="42" rx="999" fill="rgba(255,255,255,0.08)" stroke="rgba(255,255,255,0.14)"/>
  <text x="72" y="69" fill="#f2e8ff" font-size="18" font-family="Arial, sans-serif" letter-spacing="2">LIVE ROULETTE</text>
  <text x="52" y="594" fill="#cbb5ef" font-size="24" font-family="Arial, sans-serif" letter-spacing="2">CASINO ROOM</text>
  <text x="52" y="650" fill="#ffffff" font-size="72" font-family="Arial, sans-serif" font-weight="700">Brazilian</text>
  <text x="52" y="728" fill="#ffffff" font-size="72" font-family="Arial, sans-serif" font-weight="700">Roulette</text>
  <text x="52" y="546" fill="#dccff2" font-size="28" font-family="Arial, sans-serif">Sala de roleta ao vivo com apresentacao localizada para o Brasil</text>
  <circle cx="744" cy="286" r="124" fill="none" stroke="#caa4ff" stroke-width="18"/>
  <circle cx="744" cy="286" r="82" fill="#7446ff" opacity="0.28"/>
  <circle cx="744" cy="286" r="12" fill="#f2e8ff"/>
  <path d="M744 162 L744 410" stroke="#caa4ff" stroke-width="12" stroke-linecap="round"/>
  <path d="M620 286 L868 286" stroke="#caa4ff" stroke-width="12" stroke-linecap="round"/>
  <path d="M656 198 L832 374" stroke="#caa4ff" stroke-width="10" stroke-linecap="round"/>
  <path d="M832 198 L656 374" stroke="#caa4ff" stroke-width="10" stroke-linecap="round"/>
</svg>
